<svg width="43" height="42" viewBox="0 0 43 42" fill="none" xmlns="http://www.w3.org/2000/svg">
<g clip-path="url(#clip0_91_4972)">
<path d="M42.0568 16.5294C42.0568 16.5294 38.1229 11.2741 38.1205 11.2711C38.1195 11.2697 38.0337 11.1174 37.7694 11.0333L21.376 6.40439C21.2555 6.37041 21.1282 6.37041 21.0077 6.40439L4.6143 11.0333C4.6143 11.0333 4.39049 11.0979 4.256 11.2795C4.20215 11.3522 0.326954 16.5294 0.326954 16.5294C0.197034 16.7032 0.158021 16.9287 0.222234 17.136C0.286541 17.3433 0.446234 17.5073 0.65166 17.577L4.12095 18.7544V28.1693C4.12095 28.4435 4.28624 28.6906 4.53973 28.7953L20.9332 35.5695C20.9819 35.5897 21.0437 35.6209 21.1919 35.6209C21.34 35.6209 21.4505 35.5695 21.4505 35.5695L37.8441 28.7953C38.0976 28.6906 38.2628 28.4434 38.2628 28.1693V18.7542L41.732 17.5768C41.9375 17.5071 42.0972 17.343 42.1615 17.1358C42.2257 16.9287 42.1867 16.7032 42.0568 16.5294ZM1.97102 16.5939L5.06389 12.4611L6.31483 12.8057L13.355 14.745L20.013 16.5792L16.1082 21.3919L1.97102 16.5939ZM20.5145 33.9304L5.47577 27.7162V19.2141L16.1195 22.8268C16.1908 22.8512 16.2642 22.8627 16.3371 22.8627C16.5373 22.8627 16.732 22.7737 16.8631 22.612L20.5146 18.1115L20.5145 33.9304ZM21.1919 15.499L7.31975 11.6773L21.1919 7.76014L35.064 11.6773L21.1919 15.499ZM36.908 27.7162L21.8692 33.9304V18.1117L25.5207 22.6121C25.6518 22.7737 25.8465 22.8628 26.0467 22.8628C26.1196 22.8628 26.193 22.8514 26.2644 22.827L36.908 19.2143V27.7162ZM26.2756 21.3921L22.3708 16.5794L37.3199 12.4611L40.4129 16.5939L26.2756 21.3921Z" fill="#1B5E37"/>
</g>
<defs>
<clipPath id="clip0_91_4972">
<rect width="42" height="42" fill="white" transform="translate(0.191895)"/>
</clipPath>
</defs>
</svg>
