<svg width="17" height="16" viewBox="0 0 17 16" fill="none" xmlns="http://www.w3.org/2000/svg">
<path d="M13.68 7.49967H10.9867C9.64667 7.49967 9 6.90634 9 5.67967V2.65301C9 1.42634 9.65333 0.833008 10.9867 0.833008H13.68C15.02 0.833008 15.6667 1.42634 15.6667 2.65301V5.67301C15.6667 6.90634 15.0133 7.49967 13.68 7.49967ZM10.9867 1.83301C10.0933 1.83301 10 2.08634 10 2.65301V5.67301C10 6.24634 10.0933 6.49301 10.9867 6.49301H13.68C14.5733 6.49301 14.6667 6.23967 14.6667 5.67301V2.65301C14.6667 2.07967 14.5733 1.83301 13.68 1.83301H10.9867Z" fill="#4E5556"/>
<path d="M13.68 15.1667H10.9867C9.64667 15.1667 9 14.5133 9 13.18V10.4867C9 9.14667 9.65333 8.5 10.9867 8.5H13.68C15.02 8.5 15.6667 9.15333 15.6667 10.4867V13.18C15.6667 14.5133 15.0133 15.1667 13.68 15.1667ZM10.9867 9.5C10.2 9.5 10 9.7 10 10.4867V13.18C10 13.9667 10.2 14.1667 10.9867 14.1667H13.68C14.4667 14.1667 14.6667 13.9667 14.6667 13.18V10.4867C14.6667 9.7 14.4667 9.5 13.68 9.5H10.9867Z" fill="#4E5556"/>
<path d="M6.01325 7.49967H3.31992C1.97992 7.49967 1.33325 6.90634 1.33325 5.67967V2.65301C1.33325 1.42634 1.98659 0.833008 3.31992 0.833008H6.01325C7.35325 0.833008 7.99992 1.42634 7.99992 2.65301V5.67301C7.99992 6.90634 7.34659 7.49967 6.01325 7.49967ZM3.31992 1.83301C2.42659 1.83301 2.33325 2.08634 2.33325 2.65301V5.67301C2.33325 6.24634 2.42659 6.49301 3.31992 6.49301H6.01325C6.90659 6.49301 6.99992 6.23967 6.99992 5.67301V2.65301C6.99992 2.07967 6.90659 1.83301 6.01325 1.83301H3.31992Z" fill="#4E5556"/>
<path d="M6.01325 15.1667H3.31992C1.97992 15.1667 1.33325 14.5133 1.33325 13.18V10.4867C1.33325 9.14667 1.98659 8.5 3.31992 8.5H6.01325C7.35325 8.5 7.99992 9.15333 7.99992 10.4867V13.18C7.99992 14.5133 7.34659 15.1667 6.01325 15.1667ZM3.31992 9.5C2.53325 9.5 2.33325 9.7 2.33325 10.4867V13.18C2.33325 13.9667 2.53325 14.1667 3.31992 14.1667H6.01325C6.79992 14.1667 6.99992 13.9667 6.99992 13.18V10.4867C6.99992 9.7 6.79992 9.5 6.01325 9.5H3.31992Z" fill="#4E5556"/>
</svg>
