<svg width="17" height="16" viewBox="0 0 17 16" fill="none" xmlns="http://www.w3.org/2000/svg">
<path d="M12.6266 11.833H5.52658C4.86658 11.833 4.23325 11.553 3.78658 11.0663C3.33991 10.5797 3.11325 9.92634 3.16659 9.26634L3.71992 2.62634C3.73992 2.41968 3.66658 2.21968 3.52658 2.06635C3.38658 1.91301 3.19325 1.83301 2.98658 1.83301H1.83325C1.55992 1.83301 1.33325 1.60634 1.33325 1.33301C1.33325 1.05967 1.55992 0.833008 1.83325 0.833008H2.99326C3.47992 0.833008 3.93991 1.03967 4.26658 1.39301C4.44658 1.59301 4.57992 1.82634 4.65325 2.08634H12.9799C13.6533 2.08634 14.2732 2.35301 14.7266 2.83301C15.1733 3.31967 15.3999 3.95301 15.3466 4.62634L14.9866 9.62634C14.9132 10.8463 13.8466 11.833 12.6266 11.833ZM4.68658 3.07967L4.16659 9.34633C4.13325 9.733 4.25992 10.0997 4.51992 10.3863C4.77992 10.673 5.13991 10.8263 5.52658 10.8263H12.6266C13.3199 10.8263 13.9466 10.2397 13.9999 9.54635L14.3599 4.54635C14.3866 4.15301 14.2599 3.77968 13.9999 3.50635C13.7399 3.22635 13.3799 3.073 12.9866 3.073H4.68658V3.07967Z" fill="#4E5556"/>
<path d="M11.3333 15.1667C10.6 15.1667 10 14.5667 10 13.8333C10 13.1 10.6 12.5 11.3333 12.5C12.0667 12.5 12.6667 13.1 12.6667 13.8333C12.6667 14.5667 12.0667 15.1667 11.3333 15.1667ZM11.3333 13.5C11.1467 13.5 11 13.6467 11 13.8333C11 14.02 11.1467 14.1667 11.3333 14.1667C11.52 14.1667 11.6667 14.02 11.6667 13.8333C11.6667 13.6467 11.52 13.5 11.3333 13.5Z" fill="#4E5556"/>
<path d="M6.00008 15.1667C5.26675 15.1667 4.66675 14.5667 4.66675 13.8333C4.66675 13.1 5.26675 12.5 6.00008 12.5C6.73341 12.5 7.33342 13.1 7.33342 13.8333C7.33342 14.5667 6.73341 15.1667 6.00008 15.1667ZM6.00008 13.5C5.81341 13.5 5.66675 13.6467 5.66675 13.8333C5.66675 14.02 5.81341 14.1667 6.00008 14.1667C6.18675 14.1667 6.33341 14.02 6.33341 13.8333C6.33341 13.6467 6.18675 13.5 6.00008 13.5Z" fill="#4E5556"/>
<path d="M14.5 5.83301H6.5C6.22667 5.83301 6 5.60634 6 5.33301C6 5.05967 6.22667 4.83301 6.5 4.83301H14.5C14.7733 4.83301 15 5.05967 15 5.33301C15 5.60634 14.7733 5.83301 14.5 5.83301Z" fill="#4E5556"/>
</svg>
